<?xml version="1.0" encoding="UTF-8"?>
<svg id="Layer_1" data-name="Layer 1" xmlns="http://www.w3.org/2000/svg" xmlns:xlink="http://www.w3.org/1999/xlink" viewBox="0 0 426.1 401.03">
  <defs>
    <style>
      .cls-1, .cls-2, .cls-3, .cls-4, .cls-5, .cls-6, .cls-7, .cls-8, .cls-9, .cls-10, .cls-11 {
        fill: none;
        stroke-miterlimit: 10;
      }

      .cls-1, .cls-2, .cls-5, .cls-8, .cls-11 {
        stroke: #000;
      }

      .cls-1, .cls-10 {
        stroke-width: .5px;
      }

      .cls-2 {
        stroke-width: .57px;
      }

      .cls-12 {
        filter: url(#drop-shadow-5);
      }

      .cls-13 {
        fill: #fff;
      }

      .cls-3 {
        stroke-width: .6px;
      }

      .cls-3, .cls-7, .cls-9 {
        stroke: #252525;
      }

      .cls-4 {
        stroke-width: .76px;
      }

      .cls-4, .cls-6, .cls-10 {
        stroke: #282828;
      }

      .cls-5, .cls-6 {
        stroke-width: .25px;
      }

      .cls-7 {
        stroke-width: .44px;
      }

      .cls-8 {
        stroke-width: .38px;
      }

      .cls-9 {
        stroke-width: .49px;
      }

      .cls-11 {
        stroke-width: .15px;
      }
    </style>
    <filter id="drop-shadow-5" x="-11.45" y="11.65" width="448" height="409" filterUnits="userSpaceOnUse">
      <feOffset dx="0" dy="13.85"/>
      <feGaussianBlur result="blur" stdDeviation="9.9"/>
      <feFlood flood-color="#939393" flood-opacity=".5"/>
      <feComposite in2="blur" operator="in"/>
      <feComposite in="SourceGraphic"/>
    </filter>
  </defs>
  <g class="cls-12">
    <rect class="cls-13" x="21.42" y="21.01" width="387.85" height="348.16" rx="12" ry="12"/>
  </g>
  <g transform="translate(3.07 1.07)">
  <line class="cls-6" x1="29.32" y1="73.07" x2="399.34" y2="73.07"/>
  <line class="cls-6" x1="29.32" y1="117.89" x2="399.34" y2="117.89"/>
  <line class="cls-6" x1="29.32" y1="162.7" x2="399.34" y2="162.7"/>
  <line class="cls-6" x1="28.32" y1="207.52" x2="398.34" y2="207.52"/>
  <line class="cls-6" x1="29.77" y1="252.34" x2="399.79" y2="252.34"/>
  <line class="cls-6" x1="29.77" y1="292.48" x2="399.79" y2="292.48"/>
  <line class="cls-6" x1="29.77" y1="337.3" x2="399.79" y2="337.3"/>
  <g>
    <circle class="cls-8" cx="55.24" cy="96.28" r="6.96"/>
    <g>
      <line class="cls-8" x1="49.25" y1="113.9" x2="52.49" y2="104.38"/>
      <line class="cls-8" x1="38.54" y1="104.5" x2="47.57" y2="100.06"/>
      <line class="cls-8" x1="37.62" y1="90.29" x2="47.15" y2="93.53"/>
      <line class="cls-8" x1="47.02" y1="79.59" x2="51.46" y2="88.61"/>
      <line class="cls-8" x1="61.23" y1="78.66" x2="57.99" y2="88.19"/>
      <line class="cls-8" x1="71.93" y1="88.06" x2="62.91" y2="92.51"/>
      <line class="cls-8" x1="72.86" y1="102.28" x2="63.33" y2="99.04"/>
      <line class="cls-8" x1="63.46" y1="112.98" x2="59.02" y2="103.95"/>
    </g>
  </g>
  <g>
    <path class="cls-1" d="M53.87,156.09c-7.29-1.86-12.69-8.47-12.69-16.34s5.4-14.48,12.69-16.34"/>
    <path class="cls-1" d="M61.24,151.26c-5.14-1.31-8.94-5.96-8.94-11.51s3.8-10.2,8.94-11.51"/>
    <path class="cls-1" d="M66.91,146.94c-3.21-.82-5.58-3.73-5.58-7.19s2.37-6.37,5.58-7.19"/>
  </g>
  <g>
    <path d="M57.25,190.46c.96-2.23,1.91-4.47,2.87-6.7,1.53-3.56,3.05-7.13,4.58-10.69.35-.82.7-1.64,1.06-2.46.16-.38-.39-.71-.56-.33-.96,2.23-1.91,4.47-2.87,6.7-1.53,3.56-3.05,7.13-4.58,10.69-.35.82-.7,1.64-1.06,2.46-.16.38.39.71.56.33h0Z"/>
    <path class="cls-2" d="M54.48,189.81c-2.57,2.79-4.93,3.08-5.64,3.13-2.9.2-4.68-.45-4.68-.45-.6-.22-1.43-.6-1.68-.34-.12.12-.08.35.36,1.45.42,1.07.6,1.45.6,1.45.73,1.57,1.09,2.35,1.32,2.46,1.09.52,2.63-.94,3-.56,0,0,.2.2-.96,2.35h0c.53,1.41,1.38,2,1.8,2.24.21.12.46.23,3,.67,1.91.33,2.12.32,2.4.22,1.27-.46,1.59-2.1,1.92-2.01.32.09-.2,1.55.48,2.01.38.26,1.06.06,2.4-.34.59-.17.99-.33,1.56-.56,1.21-.48,1.81-.73,1.92-1.01.21-.53-.51-.96-1.32-2.13-1.35-1.94-1.59-3.92-1.68-4.7-.11-.96-.07-1.77,0-2.35"/>
    <line class="cls-2" x1="54.13" y1="189.71" x2="59.66" y2="191.5"/>
    <line class="cls-2" x1="54.7" y1="188.51" x2="60.23" y2="190.29"/>
  </g>
  <g>
    <ellipse class="cls-10" cx="40.59" cy="229.18" rx="3.5" ry="3.79" transform="translate(-87.76 35.02) rotate(-23.42)"/>
    <ellipse class="cls-10" cx="48.12" cy="221.37" rx="3.82" ry="4.37"/>
    <ellipse class="cls-10" cx="58.63" cy="219.85" rx="4.37" ry="3.85" transform="translate(-168.74 228.56) rotate(-77.26)"/>
    <ellipse class="cls-10" cx="68.82" cy="225.38" rx="4.37" ry="3.91" transform="translate(-151.62 142.08) rotate(-52.32)"/>
    <path class="cls-4" d="M48.35,244.21c-10.87-7.59,3.3-22.7,13-15.32,4.83,3.09,7.84,10.89,1.91,14.59-4.09,2.59-10.54,3.03-14.67.87l-.24-.13Z"/>
  </g>
  <g>
    <ellipse class="cls-1" cx="56.42" cy="269.59" rx="6.24" ry="6.6"/>
    <path class="cls-1" d="M44.56,283.66c0-3.29,2.54-5.99,5.65-5.99.55,0,1.1,0,1.65,0,3.59,0,7.17,0,10.76,0,.38,0,2.38.05,3.99,1.76,1.02,1.08,1.66,2.58,1.66,4.23v.43"/>
  </g>
  <g>
    <ellipse class="cls-5" cx="39.54" cy="265.89" rx="4.4" ry="4.74"/>
    <path class="cls-5" d="M31.18,275.99c0-2.36,1.79-4.3,3.99-4.3.39,0,.78,0,1.16,0,2.53,0,5.06,0,7.59,0,.27,0,1.68.03,2.82,1.26.72.78,1.17,1.85,1.17,3.04v.31"/>
  </g>
  <g>
    <ellipse class="cls-11" cx="71.85" cy="265.89" rx="4.45" ry="4.74"/>
    <path class="cls-11" d="M63.4,275.99c0-2.36,1.81-4.3,4.03-4.3.39,0,.78,0,1.18,0,2.56,0,5.11,0,7.67,0,.27,0,1.69.03,2.85,1.26.73.78,1.18,1.85,1.18,3.04v.31"/>
  </g>
  <g>
    <line class="cls-7" x1="55.36" y1="315.28" x2="55.36" y2="328.2"/>
    <path class="cls-3" d="M62.39,302.89c.11,2.23-.01,4.12-.18,5.52-.52,4.48-1.56,5.48-2.65,6.07-1.33.72-2.94.93-4.07.99h-.26c-1.13-.06-2.74-.28-4.07-.99-1.09-.59-2.13-1.6-2.65-6.07-.16-1.41-.29-3.29-.18-5.52h14.06Z"/>
    <ellipse class="cls-9" cx="55.36" cy="328.49" rx="4.74" ry="1.19"/>
  </g>
  </g>
</svg>
