<?xml version="1.0" encoding="UTF-8"?>
<svg id="Layer_1" data-name="Layer 1" xmlns="http://www.w3.org/2000/svg" xmlns:xlink="http://www.w3.org/1999/xlink" viewBox="0 0 426.1 401.03">
  <defs>
    <style>
      .cls-1 {
        filter: url(#drop-shadow-2);
      }

      .cls-2 {
        fill: #fff;
      }

      .cls-3 {
        stroke-width: .48px;
      }

      .cls-3, .cls-4, .cls-5, .cls-6, .cls-7, .cls-8 {
        stroke: #282828;
      }

      .cls-3, .cls-4, .cls-5, .cls-6, .cls-7, .cls-8, .cls-9 {
        fill: none;
        stroke-miterlimit: 10;
      }

      .cls-4 {
        stroke-width: .24px;
      }

      .cls-5 {
        stroke-width: .25px;
      }

      .cls-6 {
        stroke-width: .42px;
      }

      .cls-10 {
        fill: #282828;
        font-size: 28px;
      }

      .cls-10, .cls-11 {
        font-family: OpenSans-Light, 'Open Sans';
        font-weight: 300;
      }

      .cls-7 {
        stroke-width: .5px;
      }

      .cls-8 {
        stroke-width: .22px;
      }

      .cls-11 {
        font-size: 14px;
      }

      .cls-9 {
        stroke: #000;
        stroke-width: .44px;
      }
    </style>
    <filter id="drop-shadow-2" x="-8.78" y="4.65" width="449" height="409" filterUnits="userSpaceOnUse">
      <feOffset dx="0" dy="13.85"/>
      <feGaussianBlur result="blur" stdDeviation="9.9"/>
      <feFlood flood-color="#939393" flood-opacity=".5"/>
      <feComposite in2="blur" operator="in"/>
      <feComposite in="SourceGraphic"/>
    </filter>
  </defs>
  <g class="cls-1">
    <rect class="cls-2" x="21.42" y="21.01" width="387.85" height="348.16" rx="12" ry="12"/>
  </g>
  <text class="cls-10" transform="translate(36.64 60.76)"><tspan x="0" y="0">BASIC INFO</tspan></text>
  <line class="cls-5" x1="32.39" y1="74.14" x2="402.41" y2="74.14"/>
  <line class="cls-5" x1="32.39" y1="118.96" x2="402.41" y2="118.96"/>
  <line class="cls-5" x1="32.39" y1="163.78" x2="402.41" y2="163.78"/>
  <line class="cls-5" x1="31.39" y1="208.59" x2="401.41" y2="208.59"/>
  <line class="cls-5" x1="32.84" y1="253.41" x2="402.86" y2="253.41"/>
  <line class="cls-5" x1="90.65" y1="76.84" x2="90.65" y2="114.89"/>
  <line class="cls-5" x1="178.39" y1="76.84" x2="178.39" y2="114.89"/>
  <line class="cls-5" x1="290.81" y1="76.84" x2="290.81" y2="114.89"/>
  <text class="cls-11" transform="translate(44.1 102.96)"><tspan x="0" y="0">AGE</tspan></text>
  <text class="cls-11" transform="translate(105.92 102.96)"><tspan x="0" y="0">GENDER</tspan></text>
  <text class="cls-11" transform="translate(201.37 102.96)"><tspan x="0" y="0">LOCATION</tspan></text>
  <text class="cls-11" transform="translate(300.84 102.96)"><tspan x="0" y="0">$PRICE RANGE</tspan></text>
  <g>
    <polygon class="cls-9" points="58.43 173 72.56 186.48 72.56 186.48 44.02 186.48 58.43 173 58.43 173"/>
    <line class="cls-9" x1="49.35" y1="186.48" x2="49.35" y2="199.99"/>
    <line class="cls-9" x1="58.24" y1="186.48" x2="58.24" y2="199.99"/>
    <line class="cls-9" x1="67.4" y1="186.48" x2="67.4" y2="199.99"/>
    <line class="cls-9" x1="43.17" y1="200.21" x2="73.41" y2="200.21"/>
  </g>
  <text class="cls-11" transform="translate(90.86 193.39)"><tspan x="0" y="0">POLITICAL OFFILIATION</tspan></text>
  <text class="cls-11" transform="translate(88.67 148.08)"><tspan x="0" y="0">TIME RANGE NEEDED</tspan></text>
  <g>
    <path class="cls-7" d="M71.42,232.13v5.15c0,3.61-.43,6.56-4.81,6.56h-16.72c-4.38,0-4.77-2.95-4.77-6.56v-5.15"/>
    <polygon class="cls-7" points="58.13 238.9 38.91 228.47 58.13 220.97 77.7 228.7 58.13 238.9"/>
  </g>
  <text class="cls-11" transform="translate(91.2 237.49)"><tspan x="0" y="0">EDUCATION LEVEL</tspan></text>
  <line class="cls-5" x1="32.84" y1="293.55" x2="402.86" y2="293.55"/>
  <line class="cls-5" x1="32.84" y1="338.37" x2="402.86" y2="338.37"/>
  <g>
    <rect class="cls-7" x="44.36" y="268.56" width="27.69" height="18.68" rx="3.34" ry="3.34"/>
    <path class="cls-7" d="M52.98,268.52v-3.94c0-1.14.93-2.07,2.07-2.07h6.32c1.14,0,2.07.93,2.07,2.07v4.12"/>
    <line class="cls-7" x1="44.34" y1="274.64" x2="72.28" y2="274.64"/>
  </g>
  <text class="cls-11" transform="translate(90.58 280)"><tspan x="0" y="0">OCCUPATION</tspan></text>
  <g>
    <polygon class="cls-3" points="59.37 329.04 41.64 330.02 41.64 306.26 59.34 308.31 59.37 329.04"/>
    <polygon class="cls-3" points="76.95 330.02 59.37 329.04 59.34 308.31 76.95 306.26 76.95 330.02"/>
    <line class="cls-4" x1="45.61" y1="310.18" x2="45.61" y2="326.93"/>
    <line class="cls-4" x1="72.99" y1="310.18" x2="72.99" y2="326.93"/>
  </g>
  <text class="cls-11" transform="translate(92.53 322.24)"><tspan x="0" y="0">RELIGION</tspan></text>
  <g>
    <rect class="cls-6" x="44.92" y="127.08" width="25.8" height="28.58"/>
    <line class="cls-5" x1="45.03" y1="134.07" x2="70.83" y2="134.07"/>
    <g>
      <rect class="cls-8" x="47.82" y="137.69" width="4.91" height="5.78"/>
      <rect class="cls-8" x="55.3" y="137.69" width="4.91" height="5.78"/>
      <rect class="cls-8" x="62.78" y="137.69" width="4.91" height="5.78"/>
    </g>
    <g>
      <rect class="cls-8" x="47.84" y="146.47" width="4.91" height="5.78"/>
      <rect class="cls-8" x="55.32" y="146.47" width="4.91" height="5.78"/>
      <rect class="cls-8" x="62.8" y="146.47" width="4.91" height="5.78"/>
    </g>
  </g>
</svg>
